<svg xmlns="http://www.w3.org/2000/svg" width="118.706" height="34.089" viewBox="0 0 118.706 34.089"><defs><style>.a{fill:#24b24b;}.b{fill:#fff;}.c{fill:#6d6d6d;}</style></defs><g transform="translate(-191 -61.224)"><g transform="translate(191 61.224)"><ellipse class="a" cx="17.045" cy="17.045" rx="17.045" ry="17.045"></ellipse><path class="b" d="M53.593,6.115A8.232,8.232,0,0,1,53.5,7a10.734,10.734,0,0,1-.42,1.448c-.607,1.775-1.308,3.923-2.195,6.351s-1.868,5.324-2.942,8.732H46.449c.42-2.9.887-6.258,1.308-10.087.467-3.783.747-6.024.887-6.678A3.491,3.491,0,0,1,49.764,4.9a2.938,2.938,0,0,1,1.915-.7,1.906,1.906,0,0,1,1.4.514A2.156,2.156,0,0,1,53.593,6.115Zm-4.857,23.4a2.663,2.663,0,0,1-.747,1.821,2.568,2.568,0,1,1,0-3.642A2.663,2.663,0,0,1,48.737,29.51Z" transform="translate(-23.24 -2.239)"></path><path class="b" d="M19.185,32.228a10.355,10.355,0,0,1-3.129-.42,8.759,8.759,0,0,1-2.195-1.027l-.794,1.074H11.9L13.3,24.8h1.167a16.55,16.55,0,0,0,.327,2.335,5.518,5.518,0,0,0,.887,2.008,4.168,4.168,0,0,0,1.588,1.4,5.277,5.277,0,0,0,2.382.514,4.669,4.669,0,0,0,3.456-1.214,4.191,4.191,0,0,0,1.308-3.269,3.719,3.719,0,0,0-.56-2.008,3.8,3.8,0,0,0-1.681-1.354c-.7-.327-1.354-.56-2.055-.841a15.182,15.182,0,0,1-2.008-.841,5.228,5.228,0,0,1-2.1-1.775,4.815,4.815,0,0,1-.794-2.662,5.939,5.939,0,0,1,.607-2.568,6.863,6.863,0,0,1,1.634-2.008,7.3,7.3,0,0,1,2.382-1.308,8.471,8.471,0,0,1,2.8-.514,8.567,8.567,0,0,1,2.475.327A5.928,5.928,0,0,1,27.4,12.194l.794-.981h1.167l-1.448,6.865H26.75a20.8,20.8,0,0,0-.233-2.335,5.4,5.4,0,0,0-.607-1.961,3.434,3.434,0,0,0-1.354-1.354,4.487,4.487,0,0,0-2.288-.514,3.912,3.912,0,0,0-2.9,1.214,3.811,3.811,0,0,0-1.167,2.8,3.748,3.748,0,0,0,.42,1.821,3.146,3.146,0,0,0,1.354,1.214,15.181,15.181,0,0,0,2.008.841c.7.233,1.308.514,1.868.747a7.686,7.686,0,0,1,2.615,1.868A4.145,4.145,0,0,1,27.4,25.13a6.539,6.539,0,0,1-.654,2.849,6.413,6.413,0,0,1-1.775,2.241,9.064,9.064,0,0,1-2.615,1.494A8.557,8.557,0,0,1,19.185,32.228Z" transform="translate(-6.343 -5.703)"></path><g transform="translate(37.031 8.826)"><path class="c" d="M79.3,34.095l1.354-1.354a5.368,5.368,0,0,0,3.5,1.775c1.588,0,2.568-.7,2.568-1.868,0-2.755-7.332-2.662-7.332-6.865,0-2.1,1.821-3.783,4.576-3.783a7.656,7.656,0,0,1,4.857,2.288l-1.354,1.354a5.413,5.413,0,0,0-3.5-1.775c-1.634,0-2.615.7-2.615,1.868,0,2.755,7.332,2.662,7.332,6.865,0,2.1-1.821,3.783-4.576,3.783A7.637,7.637,0,0,1,79.3,34.095Z" transform="translate(-79.3 -20.552)"></path><path class="c" d="M111.834,34.577l-8.5,1.541a3.345,3.345,0,0,0,3.129,2.241,3.979,3.979,0,0,0,3.6-2.241l1.681.56a5.824,5.824,0,0,1-5.324,3.5,5.52,5.52,0,0,1-5.137-3.689,5.36,5.36,0,0,1-.28-1.728,5.491,5.491,0,0,1,5.417-5.464,5.4,5.4,0,0,1,5.37,5A.309.309,0,0,1,111.834,34.577Zm-2.242-1.214a3.545,3.545,0,0,0-3.362-2.288,3.4,3.4,0,0,0-3.175,3.035v.42Z" transform="translate(-90.867 -24.443)"></path><path class="c" d="M133.711,29.967l-.607,2.055a2.9,2.9,0,0,0-1.588-.654,2.716,2.716,0,0,0-2.708,2.849v5.977H126.8V29.687h2.008v1.308a4.266,4.266,0,0,1,3.129-1.494A4.338,4.338,0,0,1,133.711,29.967Z" transform="translate(-104.618 -24.55)"></path><path class="c" d="M152.54,29.9,148.9,40.407h-2.008L143.2,29.9h2.008l2.662,7.658,2.662-7.658h2.008Z" transform="translate(-113.36 -24.763)"></path><path class="c" d="M173.734,34.577l-8.5,1.541a3.345,3.345,0,0,0,3.129,2.241,3.979,3.979,0,0,0,3.6-2.241l1.681.56a5.824,5.824,0,0,1-5.324,3.5,5.52,5.52,0,0,1-5.137-3.689,5.359,5.359,0,0,1-.28-1.728,5.491,5.491,0,0,1,5.417-5.464,5.4,5.4,0,0,1,5.37,5A.309.309,0,0,1,173.734,34.577Zm-2.242-1.214a3.545,3.545,0,0,0-3.362-2.288,3.4,3.4,0,0,0-3.175,3.035v.42Z" transform="translate(-123.861 -24.443)"></path><path class="c" d="M189.7,18.9h2.008V34.544H189.7Z" transform="translate(-138.146 -18.9)"></path><path class="c" d="M197,35.017a5.417,5.417,0,1,1,5.417,5.417A5.421,5.421,0,0,1,197,35.017Zm8.919,0a3.412,3.412,0,1,0-3.409,3.549A3.431,3.431,0,0,0,205.919,35.017Z" transform="translate(-142.037 -24.603)"></path><path class="c" d="M217.4,38.813l.607-1.681a2.11,2.11,0,0,0,1.354.42c.887,0,1.261-1.027,1.261-2.1V24.57h2.008V35.4c0,2.241-1.074,4.109-3.269,4.109A3.205,3.205,0,0,1,217.4,38.813Zm3.129-17.792A1.106,1.106,0,0,1,221.65,19.9a1.121,1.121,0,1,1,0,2.241A1.078,1.078,0,0,1,220.529,21.021Z" transform="translate(-152.91 -19.433)"></path><path class="c" d="M241.674,29.74V40.247h-2.008V39.126a5.278,5.278,0,0,1-3.549,1.308,5.417,5.417,0,0,1,0-10.834,5.521,5.521,0,0,1,3.549,1.308V29.74Zm-2.1,5.277a3.412,3.412,0,1,0-3.409,3.549A3.4,3.4,0,0,0,239.573,35.017Z" transform="translate(-159.999 -24.603)"></path></g></g></g></svg>